<svg width="40" height="40" viewBox="0 0 40 40" fill="none" xmlns="http://www.w3.org/2000/svg">
<path d="M36.6667 5H11.6667C10.5167 5 9.61667 5.58333 9.01667 6.46667L0.616675 19.0833C0.250008 19.65 0.250008 20.3667 0.616675 20.9333L9.01667 33.5333C9.61667 34.4 10.5167 35 11.6667 35H36.6667C38.5 35 40 33.5 40 31.6667V8.33333C40 6.5 38.5 5 36.6667 5ZM30.5 27.1667C30.3458 27.3212 30.1627 27.4438 29.961 27.5274C29.7594 27.611 29.5433 27.6541 29.325 27.6541C29.1067 27.6541 28.8906 27.611 28.689 27.5274C28.4873 27.4438 28.3042 27.3212 28.15 27.1667L23.3333 22.35L18.5167 27.1667C18.205 27.4783 17.7824 27.6534 17.3417 27.6534C16.901 27.6534 16.4783 27.4783 16.1667 27.1667C15.855 26.855 15.68 26.4324 15.68 25.9917C15.68 25.551 15.855 25.1283 16.1667 24.8167L20.9833 20L16.1667 15.1833C15.855 14.8717 15.68 14.449 15.68 14.0083C15.68 13.7901 15.723 13.574 15.8065 13.3724C15.89 13.1708 16.0124 12.9876 16.1667 12.8333C16.321 12.679 16.5042 12.5566 16.7058 12.4731C16.9074 12.3896 17.1235 12.3466 17.3417 12.3466C17.7824 12.3466 18.205 12.5217 18.5167 12.8333L23.3333 17.65L28.15 12.8333C28.3043 12.679 28.4875 12.5566 28.6891 12.4731C28.8907 12.3896 29.1068 12.3466 29.325 12.3466C29.5432 12.3466 29.7593 12.3896 29.9609 12.4731C30.1625 12.5566 30.3457 12.679 30.5 12.8333C30.6543 12.9876 30.7767 13.1708 30.8602 13.3724C30.9437 13.574 30.9867 13.7901 30.9867 14.0083C30.9867 14.2266 30.9437 14.4426 30.8602 14.6442C30.7767 14.8458 30.6543 15.029 30.5 15.1833L25.6833 20L30.5 24.8167C31.1333 25.45 31.1333 26.5167 30.5 27.1667Z" fill="#CBCBCB"/>
</svg>
